<svg preserveAspectRatio="none" width="100%" height="100%" overflow="visible" style="display: block;" viewBox="0 0 52.6726 12.5122" fill="none" xmlns="http://www.w3.org/2000/svg">
<path id="Arrow 29" d="M0.849558 5.40655C0.38036 5.40655 0 5.78691 0 6.25611C0 6.72531 0.38036 7.10567 0.849558 7.10567V6.25611V5.40655ZM52.4237 6.85684C52.7555 6.52506 52.7555 5.98715 52.4237 5.65538L47.0172 0.248829C46.6854 -0.0829434 46.1475 -0.0829434 45.8157 0.248829C45.484 0.580602 45.484 1.11851 45.8157 1.45029L50.6216 6.25611L45.8157 11.0619C45.484 11.3937 45.484 11.9316 45.8157 12.2634C46.1475 12.5952 46.6854 12.5952 47.0172 12.2634L52.4237 6.85684ZM0.849558 6.25611V7.10567H51.823V6.25611V5.40655H0.849558V6.25611Z" fill="var(--stroke-0, #A5A3FF)"/>
</svg>
