<svg preserveAspectRatio="none" width="100%" height="100%" overflow="visible" style="display: block;" viewBox="0 0 14.6666 14.6667" fill="none" xmlns="http://www.w3.org/2000/svg">
<path id="line" fill-rule="evenodd" clip-rule="evenodd" d="M10.8858 11.8286C9.73656 12.7691 8.26751 13.3333 6.66667 13.3333C2.98477 13.3333 0 10.3486 0 6.66667C0 2.98477 2.98477 0 6.66667 0C10.3486 0 13.3333 2.98477 13.3333 6.66667C13.3333 8.26752 12.7691 9.73659 11.8286 10.8858L14.4714 13.5286C14.7317 13.7889 14.7317 14.2111 14.4714 14.4714C14.211 14.7318 13.7889 14.7318 13.5286 14.4714L10.8858 11.8286ZM12 6.66667C12 9.61218 9.61218 12 6.66667 12C3.72115 12 1.33333 9.61218 1.33333 6.66667C1.33333 3.72115 3.72115 1.33333 6.66667 1.33333C9.61218 1.33333 12 3.72115 12 6.66667Z" fill="var(--fill-0, #18174D)"/>
</svg>
