<svg preserveAspectRatio="none" width="100%" height="100%" overflow="visible" style="display: block;" viewBox="0 0 11.7582 16.0339" fill="none" xmlns="http://www.w3.org/2000/svg">
<path id="vector" fill-rule="evenodd" clip-rule="evenodd" d="M11.0229 0H0.734892C0.539987 0 0.353064 0.0767839 0.215245 0.213463C0.077426 0.350142 0 0.53552 0 0.728814C0 2.87258 0.612134 4.84465 1.63955 6.30026C2.13246 6.9986 2.73201 7.59048 3.41342 8.01696C2.73201 8.44344 2.13246 9.03531 1.63955 9.73366C0.612134 11.1893 0 13.1613 0 15.3051C0 15.7076 0.32902 16.0339 0.734888 16.0339H11.0233C11.4292 16.0339 11.7582 15.7076 11.7582 15.3051C11.7582 13.1613 11.1461 11.1893 10.1187 9.73366C9.62574 9.03531 9.02619 8.44344 8.34478 8.01696C9.02619 7.59048 9.62574 6.9986 10.1187 6.30026C11.1461 4.84465 11.7582 2.87258 11.7582 0.728814C11.7582 0.53552 11.6808 0.350142 11.543 0.213463C11.4051 0.0767839 11.2178 0 11.0229 0ZM5.8791 7.28814C6.99402 7.28814 8.07852 6.64885 8.91457 5.46436C9.63955 4.43723 10.1419 3.04034 10.2611 1.45763H1.49706C1.61635 3.04034 2.11865 4.43723 2.84364 5.46436C3.67968 6.64885 4.76419 7.28814 5.8791 7.28814ZM5.8791 8.74577C4.76419 8.74577 3.67968 9.38507 2.84364 10.5696C2.11865 11.5967 1.61635 12.9936 1.49706 14.5763H10.2611C10.1419 12.9936 9.63955 11.5967 8.91457 10.5696C8.07852 9.38507 6.99401 8.74577 5.8791 8.74577Z" fill="var(--fill-0, #D47B4E)"/>
</svg>
