<svg preserveAspectRatio="none" width="100%" height="100%" overflow="visible" style="display: block;" viewBox="0 0 17.0625 17.0625" fill="none" xmlns="http://www.w3.org/2000/svg">
<path id="vector" fill-rule="evenodd" clip-rule="evenodd" d="M7.82031 1.45698C4.22772 1.81367 1.42188 4.84479 1.42188 8.53125C1.42188 12.4577 4.60485 15.6406 8.53125 15.6406C12.2177 15.6406 15.2488 12.8348 15.6055 9.24219H8.53125C8.13861 9.24219 7.82031 8.92389 7.82031 8.53125V1.45698ZM9.24219 1.45694V2.13281H11.6343C10.8989 1.77546 10.0927 1.54131 9.24219 1.45694ZM13.6084 3.55469H9.24219V4.97656H14.6897C14.3895 4.45779 14.0255 3.98023 13.6084 3.55469ZM15.3154 6.39844H9.24219V7.82031H15.6056C15.5569 7.32962 15.4584 6.85402 15.3154 6.39844ZM0 8.53125C0 3.81957 3.81957 0 8.53125 0C10.798 0 12.8595 0.884946 14.3868 2.32679C15.2961 3.18525 16.0172 4.24203 16.4807 5.42888C16.8565 6.39135 17.0625 7.4381 17.0625 8.53125C17.0625 13.2429 13.2429 17.0625 8.53125 17.0625C3.81957 17.0625 0 13.2429 0 8.53125Z" fill="var(--fill-0, #1E83AD)"/>
</svg>
